<?xml version="1.0" encoding="UTF-8"?>
<!DOCTYPE svg PUBLIC "-//W3C//DTD SVG 1.1//EN" "http://www.w3.org/Graphics/SVG/1.1/DTD/svg11.dtd">
<svg xmlns="http://www.w3.org/2000/svg" version="1.1" width="158px" height="181px" style="shape-rendering:geometricPrecision; text-rendering:geometricPrecision; image-rendering:optimizeQuality; fill-rule:evenodd; clip-rule:evenodd" xmlns:xlink="http://www.w3.org/1999/xlink">
<g><path style="opacity:0.832" fill="#13693a" d="M 18.5,13.5 C 26.6732,11.9986 31.6732,15.3319 33.5,23.5C 32.6228,27.4308 30.6228,30.5974 27.5,33C 15.8291,34.9934 11.3291,30.16 14,18.5C 15.025,16.313 16.525,14.6464 18.5,13.5 Z"/></g>
<g><path style="opacity:0.888" fill="#14693b" d="M 59.5,95.5 C 57.5289,100.105 55.0289,104.438 52,108.5C 51.3292,109.252 50.4959,109.586 49.5,109.5C 43.7742,99.7226 38.2742,89.7226 33,79.5C 32,78.1667 31,78.1667 30,79.5C 29.5,100.164 29.3334,120.831 29.5,141.5C 29.0368,145.174 27.3702,148.341 24.5,151C 22.8333,151.667 21.1667,151.667 19.5,151C 18.6006,149.348 17.6006,147.848 16.5,146.5C 16.3334,113.832 16.5,81.165 17,48.5C 18.767,40.2489 23.4337,38.2489 31,42.5C 40.5286,60.2284 50.0286,77.8951 59.5,95.5 Z"/></g>
<g><path style="opacity:0.85" fill="#78c142" d="M 123.5,47.5 C 134.758,46.7057 138.925,51.7057 136,62.5C 129.079,69.5669 123.079,68.9002 118,60.5C 116.571,54.7001 118.404,50.3668 123.5,47.5 Z"/></g>
<g><path style="opacity:0.816" fill="#f7e207" d="M 70.5,52.5 C 83.7607,52.5391 87.4273,58.3724 81.5,70C 72.6317,74.8961 66.6317,72.5627 63.5,63C 64.0764,58.2691 66.4097,54.7691 70.5,52.5 Z"/></g>
<g><path style="opacity:0.9" fill="#79c042" d="M 133.5,144.5 C 128.339,151.408 124.672,150.741 122.5,142.5C 122.046,129.17 121.712,115.837 121.5,102.5C 120.127,102.343 118.793,102.51 117.5,103C 113.946,107.953 110.279,112.786 106.5,117.5C 102.62,120.251 99.9531,123.918 98.5,128.5C 94.5302,133.315 90.6969,138.315 87,143.5C 83.0636,149.391 77.8969,150.891 71.5,148C 68.1199,144.79 65.7866,140.957 64.5,136.5C 66.1958,136.685 67.5291,137.519 68.5,139C 74.7604,139.258 79.0937,136.425 81.5,130.5C 84.8333,125.833 88.1667,121.167 91.5,116.5C 94.6046,113.725 96.9379,110.392 98.5,106.5C 106.479,95.9014 114.479,85.2347 122.5,74.5C 126.791,72.7905 130.291,73.7905 133,77.5C 133.297,95.84 133.797,114.173 134.5,132.5C 134.387,136.535 134.054,140.535 133.5,144.5 Z M 122.5,142.5 C 116.421,134.684 111.088,126.35 106.5,117.5C 110.279,112.786 113.946,107.953 117.5,103C 118.793,102.51 120.127,102.343 121.5,102.5C 121.712,115.837 122.046,129.17 122.5,142.5 Z"/></g>
<g><path style="opacity:0.882" fill="#f6e109" d="M 98.5,106.5 C 96.9379,110.392 94.6046,113.725 91.5,116.5C 88.1966,112.349 85.0299,108.015 82,103.5C 74.9005,97.4899 69.4005,98.8232 65.5,107.5C 61.2717,111.736 58.2717,116.736 56.5,122.5C 49.1935,132.425 42.3602,142.758 36,153.5C 33.9824,155.35 32.1491,157.35 30.5,159.5C 19.5955,162.27 14.9288,157.937 16.5,146.5C 17.6006,147.848 18.6006,149.348 19.5,151C 21.1667,151.667 22.8333,151.667 24.5,151C 27.3702,148.341 29.0368,145.174 29.5,141.5C 37.1647,131.514 43.8313,120.848 49.5,109.5C 50.4959,109.586 51.3292,109.252 52,108.5C 55.0289,104.438 57.5289,100.105 59.5,95.5C 62.189,89.9649 65.5223,84.7982 69.5,80C 75.559,77.2683 80.3923,78.7683 84,84.5C 88.6085,92.0699 93.4418,99.4032 98.5,106.5 Z"/></g>
<g><path style="opacity:0.915" fill="#15693b" d="M 65.5,107.5 C 68.8994,114.181 72.3994,120.848 76,127.5C 77.4877,129.16 79.321,130.16 81.5,130.5C 79.0937,136.425 74.7604,139.258 68.5,139C 67.5291,137.519 66.1958,136.685 64.5,136.5C 61.3429,132.194 58.6762,127.528 56.5,122.5C 58.2717,116.736 61.2717,111.736 65.5,107.5 Z"/></g>
<g><path style="opacity:0.863" fill="#f7e108" d="M 106.5,117.5 C 111.088,126.35 116.421,134.684 122.5,142.5C 124.672,150.741 128.339,151.408 133.5,144.5C 135.021,152.295 132.021,157.295 124.5,159.5C 120.71,158.862 117.877,156.862 116,153.5C 110.637,144.75 104.804,136.417 98.5,128.5C 99.9531,123.918 102.62,120.251 106.5,117.5 Z"/></g>
</svg>
